<?xml version="1.0" encoding="UTF-8" standalone="no"?>
<!DOCTYPE score-partwise PUBLIC "-//Recordare//DTD MusicXML 3.0 Partwise//EN" "http://www.musicxml.org/dtds/partwise.dtd">
<score-partwise version="3.0">
  <identification>
    <encoding>
      <software>Finale 2012 for Windows</software>
      <software>Dolet Light for Finale 2012</software>
      <encoding-date>2021-10-24</encoding-date>
      <supports attribute="new-system" element="print" type="yes" value="yes"/>
      <supports attribute="new-page" element="print" type="yes" value="yes"/>
    </encoding>
  </identification>
  <defaults>
    <scaling>
      <millimeters>6.4382</millimeters>
      <tenths>40</tenths>
    </scaling>
    <page-layout>
      <page-height>1591</page-height>
      <page-width>653</page-width>
      <page-margins type="both">
        <left-margin>0</left-margin>
        <right-margin>0</right-margin>
        <top-margin>0</top-margin>
        <bottom-margin>0</bottom-margin>
      </page-margins>
    </page-layout>
    <system-layout>
      <system-margins>
        <left-margin>0</left-margin>
        <right-margin>0</right-margin>
      </system-margins>
      <system-distance>105</system-distance>
      <top-system-distance>66</top-system-distance>
    </system-layout>
    <appearance>
      <line-width type="stem">1.0417</line-width>
      <line-width type="beam">5</line-width>
      <line-width type="staff">0.7487</line-width>
      <line-width type="light barline">0.7487</line-width>
      <line-width type="heavy barline">5</line-width>
      <line-width type="leger">0.7487</line-width>
      <line-width type="ending">0.7487</line-width>
      <line-width type="wedge">0.7487</line-width>
      <line-width type="enclosure">0.7487</line-width>
      <line-width type="tuplet bracket">0.7487</line-width>
      <note-size type="grace">60</note-size>
      <note-size type="cue">60</note-size>
      <distance type="hyphen">189</distance>
      <distance type="beam">8</distance>
    </appearance>
    <music-font font-family="Sonata,engraved" font-size="16.7"/>
    <word-font font-family="Times New Roman" font-size="9.1"/>
    <lyric-font font-family="Lexicon No1 A Tab" font-size="9.1"/>
  </defaults>
  <part-list>
    <score-part id="P1">
      <part-name print-object="no">MusicXML Part</part-name>
      <score-instrument id="P1-I2">
        <instrument-name>SmartMusic SoftSynth</instrument-name>
      </score-instrument>
      <midi-instrument id="P1-I2">
        <midi-channel>1</midi-channel>
        <midi-bank>15489</midi-bank>
        <midi-program>1</midi-program>
        <volume>80</volume>
        <pan>0</pan>
      </midi-instrument>
    </score-part>
  </part-list>
  <!--=========================================================-->
  <part id="P1">
    <measure number="1" width="405">
      <print>
        <system-layout>
          <top-system-distance>39</top-system-distance>
        </system-layout>
        <measure-numbering>system</measure-numbering>
      </print>
      <attributes>
        <divisions>8</divisions>
        <key>
          <fifths>-2</fifths>
          <mode>major</mode>
        </key>
        <time>
          <beats>4</beats>
          <beat-type>4</beat-type>
        </time>
        <clef>
          <sign>G</sign>
          <line>2</line>
        </clef>
      </attributes>
      <sound tempo="120"/>
      <harmony default-y="8">
        <root>
          <root-step>G</root-step>
        </root>
        <kind halign="center" text="">minor</kind>
      </harmony>
      <note default-x="117">
        <rest/>
        <duration>4</duration>
        <voice>1</voice>
        <type>eighth</type>
      </note>
      <note default-x="151">
        <pitch>
          <step>G</step>
          <octave>4</octave>
        </pitch>
        <duration>4</duration>
        <voice>1</voice>
        <type>eighth</type>
        <stem default-y="1.5">up</stem>
        <lyric default-y="-78" number="1" relative-x="-7">
          <syllabic>begin</syllabic>
          <text>Za</text>
        </lyric>
      </note>
      <note default-x="187">
        <pitch>
          <step>G</step>
          <octave>4</octave>
        </pitch>
        <duration>4</duration>
        <voice>1</voice>
        <type>eighth</type>
        <stem default-y="1.5">up</stem>
        <lyric default-y="-78" number="1" relative-x="-14">
          <syllabic>middle</syllabic>
          <text>ne</text>
        </lyric>
      </note>
      <note default-x="221">
        <pitch>
          <step>A</step>
          <octave>4</octave>
        </pitch>
        <duration>4</duration>
        <voice>1</voice>
        <type>eighth</type>
        <stem default-y="6.5">up</stem>
        <lyric default-y="-78" number="1" relative-x="-10">
          <syllabic>end</syllabic>
          <text>vřels</text>
        </lyric>
      </note>
      <note default-x="260">
        <pitch>
          <step>B</step>
          <alter>-1</alter>
          <octave>4</octave>
        </pitch>
        <duration>4</duration>
        <voice>1</voice>
        <type>eighth</type>
        <stem default-y="-51">down</stem>
        <lyric default-y="-78" number="1">
          <syllabic>single</syllabic>
          <text>na</text>
        </lyric>
      </note>
      <note default-x="293">
        <pitch>
          <step>A</step>
          <octave>4</octave>
        </pitch>
        <duration>4</duration>
        <voice>1</voice>
        <type>eighth</type>
        <stem default-y="6.5">up</stem>
        <lyric default-y="-78" number="1" relative-x="3">
          <syllabic>single</syllabic>
          <text>nás,</text>
        </lyric>
      </note>
      <harmony default-y="8">
        <root>
          <root-step>A</root-step>
        </root>
        <kind halign="center" text="7">dominant</kind>
      </harmony>
      <note default-x="328">
        <pitch>
          <step>G</step>
          <octave>4</octave>
        </pitch>
        <duration>4</duration>
        <voice>1</voice>
        <type>eighth</type>
        <stem default-y="1.5">up</stem>
        <lyric default-y="-78" number="1" relative-x="13">
          <syllabic>begin</syllabic>
          <text>Bo</text>
        </lyric>
      </note>
      <note default-x="364">
        <pitch>
          <step>A</step>
          <octave>4</octave>
        </pitch>
        <duration>4</duration>
        <voice>1</voice>
        <type>eighth</type>
        <stem default-y="6.5">up</stem>
        <lyric default-y="-78" number="1" relative-x="3">
          <syllabic>wnd</syllabic>
          <text>že,</text>
        </lyric>
      </note>
    </measure>
    <!--=======================================================-->
    <measure number="2" width="247">
      <harmony default-y="8" relative-x="12">
        <root>
          <root-step>G</root-step>
        </root>
        <kind halign="center" text="">minor</kind>
      </harmony>
      <note default-x="24">
        <rest/>
        <duration>4</duration>
        <voice>1</voice>
        <type>eighth</type>
      </note>
      <note default-x="55">
        <pitch>
          <step>G</step>
          <octave>4</octave>
        </pitch>
        <duration>4</duration>
        <voice>1</voice>
        <type>eighth</type>
        <stem default-y="1.5">up</stem>
        <lyric default-y="-78" number="1" relative-x="3">
          <syllabic>begin</syllabic>
          <text>pro</text>
        </lyric>
      </note>
      <note default-x="92">
        <pitch>
          <step>G</step>
          <octave>4</octave>
        </pitch>
        <duration>4</duration>
        <voice>1</voice>
        <type>eighth</type>
        <stem default-y="1.5">up</stem>
        <lyric default-y="-78" number="1" relative-x="-4">
          <syllabic>middle</syllabic>
          <text>lo</text>
        </lyric>
      </note>
      <note default-x="130">
        <pitch>
          <step>A</step>
          <octave>4</octave>
        </pitch>
        <duration>4</duration>
        <voice>1</voice>
        <type>eighth</type>
        <stem default-y="6.5">up</stem>
        <lyric default-y="-78" number="1" relative-x="-8">
          <syllabic>end</syllabic>
          <text>mils</text>
        </lyric>
      </note>
      <note default-x="170">
        <pitch>
          <step>B</step>
          <alter>-1</alter>
          <octave>4</octave>
        </pitch>
        <duration>4</duration>
        <voice>1</voice>
        <type>eighth</type>
        <stem default-y="-51">down</stem>
        <lyric default-y="-78" number="1">
          <syllabic>begin</syllabic>
          <text>na</text>
        </lyric>
      </note>
      <note default-x="206">
        <pitch>
          <step>A</step>
          <octave>4</octave>
        </pitch>
        <duration>4</duration>
        <voice>1</voice>
        <type>eighth</type>
        <stem default-y="6.5">up</stem>
        <lyric default-y="-78" number="1">
          <syllabic>end</syllabic>
          <text>še</text>
        </lyric>
      </note>
      <barline location="right">
        <bar-style>none</bar-style>
      </barline>
    </measure>
    <!--=======================================================-->
    <measure number="3" width="157">
      <print new-system="yes">
        <system-layout>
          <system-distance>83</system-distance>
        </system-layout>
      </print>
      <harmony default-y="8">
        <root>
          <root-step>E</root-step>
          <root-alter>-1</root-alter>
        </root>
        <kind halign="center" text="7">dominant</kind>
      </harmony>
      <note default-x="83">
        <pitch>
          <step>G</step>
          <octave>4</octave>
        </pitch>
        <duration>4</duration>
        <voice>1</voice>
        <type>eighth</type>
        <stem default-y="1">up</stem>
        <lyric default-y="-81" number="1">
          <syllabic>begin</syllabic>
          <text>řa</text>
        </lyric>
      </note>
      <note default-x="114">
        <pitch>
          <step>E</step>
          <alter>-1</alter>
          <octave>4</octave>
        </pitch>
        <duration>4</duration>
        <voice>1</voice>
        <type>eighth</type>
        <stem default-y="-8.5">up</stem>
        <lyric default-y="-82" number="1" relative-x="-5">
          <syllabic>end</syllabic>
          <text>dy,</text>
        </lyric>
      </note>
    </measure>
    <!--=======================================================-->
    <measure number="4" width="248">
      <harmony default-y="8">
        <root>
          <root-step>C</root-step>
        </root>
        <kind halign="center" text="">minor</kind>
      </harmony>
      <note default-x="21">
        <rest/>
        <duration>4</duration>
        <voice>1</voice>
        <type>eighth</type>
      </note>
      <note default-x="43">
        <pitch>
          <step>C</step>
          <octave>4</octave>
        </pitch>
        <duration>4</duration>
        <voice>1</voice>
        <type>eighth</type>
        <stem default-y="-18.5">up</stem>
        <lyric default-y="-81" number="1" relative-x="-7">
          <syllabic>begin</syllabic>
          <text>stí</text>
        </lyric>
      </note>
      <note default-x="75">
        <pitch>
          <step>C</step>
          <octave>4</octave>
        </pitch>
        <duration>4</duration>
        <voice>1</voice>
        <type>eighth</type>
        <stem default-y="-18.5">up</stem>
        <lyric default-y="-81" number="1" relative-x="-7">
          <syllabic>end</syllabic>
          <text>hal</text>
        </lyric>
      </note>
      <note default-x="109">
        <pitch>
          <step>D</step>
          <octave>4</octave>
        </pitch>
        <duration>4</duration>
        <voice>1</voice>
        <type>eighth</type>
        <stem default-y="-13.5">up</stem>
        <lyric default-y="-81" number="1">
          <syllabic>single</syllabic>
          <text>nás</text>
        </lyric>
      </note>
      <harmony default-y="8">
        <root>
          <root-step>E</root-step>
          <root-alter>-1</root-alter>
        </root>
        <kind halign="center" text="">major</kind>
      </harmony>
      <note default-x="142">
        <pitch>
          <step>E</step>
          <alter>-1</alter>
          <octave>4</octave>
        </pitch>
        <duration>4</duration>
        <voice>1</voice>
        <type>eighth</type>
        <stem default-y="-8.5">up</stem>
        <lyric default-y="-81" number="1" relative-x="17">
          <syllabic>single</syllabic>
          <text>hněv</text>
        </lyric>
      </note>
      <note default-x="177">
        <rest/>
        <duration>4</duration>
        <voice>1</voice>
        <type>eighth</type>
      </note>
      <harmony default-y="8">
        <root>
          <root-step>F</root-step>
        </root>
        <kind halign="center" text="">major</kind>
      </harmony>
      <note default-x="202">
        <pitch>
          <step>C</step>
          <octave>4</octave>
        </pitch>
        <duration>8</duration>
        <voice>1</voice>
        <type>quarter</type>
        <stem default-y="-18.5">up</stem>
        <lyric default-y="-81" number="1" relative-x="12">
          <syllabic>single</syllabic>
          <text>tvůj.</text>
        </lyric>
      </note>
    </measure>
    <!--=======================================================-->
    <measure number="5" width="248">
      <note default-x="25">
        <rest/>
        <duration>4</duration>
        <voice>1</voice>
        <type>eighth</type>
      </note>
      <harmony default-y="8" relative-x="-20">
        <root>
          <root-step>G</root-step>
        </root>
        <kind halign="center" text="">minor</kind>
      </harmony>
      <note default-x="53">
        <pitch>
          <step>D</step>
          <octave>4</octave>
        </pitch>
        <duration>4</duration>
        <voice>1</voice>
        <type>eighth</type>
        <stem default-y="-13.5">up</stem>
        <lyric default-y="-81" number="1" relative-x="-10">
          <syllabic>begin</syllabic>
          <text>Na</text>
        </lyric>
      </note>
      <note default-x="87">
        <pitch>
          <step>D</step>
          <octave>4</octave>
        </pitch>
        <duration>4</duration>
        <voice>1</voice>
        <type>eighth</type>
        <stem default-y="-13.5">up</stem>
        <lyric default-y="-81" number="1" relative-x="-8">
          <syllabic>end</syllabic>
          <text>vrať</text>
        </lyric>
      </note>
      <note default-x="122">
        <pitch>
          <step>E</step>
          <alter>-1</alter>
          <octave>4</octave>
        </pitch>
        <duration>4</duration>
        <voice>1</voice>
        <type>eighth</type>
        <stem default-y="-8.5">up</stem>
        <lyric default-y="-81" number="1">
          <syllabic>single</syllabic>
          <text>se</text>
        </lyric>
      </note>
      <harmony default-y="8" relative-x="16">
        <root>
          <root-step>D</root-step>
        </root>
        <kind halign="center" text="7">dominant</kind>
      </harmony>
      <note default-x="155">
        <pitch>
          <step>D</step>
          <octave>4</octave>
        </pitch>
        <duration>8</duration>
        <voice>1</voice>
        <type>quarter</type>
        <stem default-y="-13.5">up</stem>
        <lyric default-y="-81" number="1" relative-x="18">
          <syllabic>single</syllabic>
          <text>k nám!</text>
        </lyric>
      </note>
      <note default-x="203">
        <rest/>
        <duration>8</duration>
        <voice>1</voice>
        <type>quarter</type>
      </note>
    </measure>
    <!--=======================================================-->
    <measure number="6" width="359">
      <print new-system="yes">
        <system-layout>
          <system-distance>85</system-distance>
        </system-layout>
      </print>
      <harmony default-y="8">
        <root>
          <root-step>G</root-step>
        </root>
        <kind halign="center" text="">minor</kind>
      </harmony>
      <note default-x="85">
        <rest/>
        <duration>8</duration>
        <voice>1</voice>
        <type>quarter</type>
      </note>
      <note default-x="127">
        <pitch>
          <step>G</step>
          <octave>4</octave>
        </pitch>
        <duration>4</duration>
        <voice>1</voice>
        <type>eighth</type>
        <stem default-y="1">up</stem>
        <lyric default-y="-78" number="1" relative-x="3">
          <syllabic>begin</syllabic>
          <text>Ze</text>
        </lyric>
      </note>
      <note default-x="165">
        <pitch>
          <step>A</step>
          <octave>4</octave>
        </pitch>
        <duration>4</duration>
        <voice>1</voice>
        <type>eighth</type>
        <stem default-y="6">up</stem>
        <lyric default-y="-78" number="1" relative-x="-7">
          <syllabic>end</syllabic>
          <text>mí</text>
        </lyric>
      </note>
      <note default-x="204">
        <pitch>
          <step>B</step>
          <alter>-1</alter>
          <octave>4</octave>
        </pitch>
        <duration>4</duration>
        <voice>1</voice>
        <type>eighth</type>
        <stem default-y="-51">down</stem>
        <lyric default-y="-78" number="1">
          <syllabic>single</syllabic>
          <text>jsi</text>
        </lyric>
      </note>
      <note default-x="240">
        <pitch>
          <step>A</step>
          <octave>4</octave>
        </pitch>
        <duration>4</duration>
        <voice>1</voice>
        <type>eighth</type>
        <stem default-y="6">up</stem>
        <lyric default-y="-78" number="1">
          <syllabic>begin</syllabic>
          <text>o</text>
        </lyric>
      </note>
      <harmony default-y="8">
        <root>
          <root-step>A</root-step>
        </root>
        <kind halign="center" text="7">dominant</kind>
      </harmony>
      <note default-x="277">
        <pitch>
          <step>G</step>
          <octave>4</octave>
        </pitch>
        <duration>4</duration>
        <voice>1</voice>
        <type>eighth</type>
        <stem default-y="1">up</stem>
        <lyric default-y="-78" number="1">
          <syllabic>middle</syllabic>
          <text>třá</text>
        </lyric>
      </note>
      <note default-x="315">
        <pitch>
          <step>A</step>
          <octave>4</octave>
        </pitch>
        <duration>4</duration>
        <voice>1</voice>
        <type>eighth</type>
        <stem default-y="6">up</stem>
        <lyric default-y="-78" number="1">
          <syllabic>end</syllabic>
          <text>sl,</text>
        </lyric>
      </note>
    </measure>
    <!--=======================================================-->
    <measure number="7" width="293">
      <harmony default-y="8" relative-x="12">
        <root>
          <root-step>G</root-step>
        </root>
        <kind halign="center" text="">minor</kind>
      </harmony>
      <note default-x="25">
        <rest/>
        <duration>4</duration>
        <voice>1</voice>
        <type>eighth</type>
      </note>
      <note default-x="54">
        <pitch>
          <step>G</step>
          <octave>4</octave>
        </pitch>
        <duration>4</duration>
        <voice>1</voice>
        <type>eighth</type>
        <stem default-y="1">up</stem>
        <lyric default-y="-78" number="1" relative-x="9">
          <syllabic>begin</syllabic>
          <text>roz</text>
        </lyric>
      </note>
      <note default-x="89">
        <pitch>
          <step>G</step>
          <octave>4</octave>
        </pitch>
        <duration>4</duration>
        <voice>1</voice>
        <type>eighth</type>
        <stem default-y="1">up</stem>
        <lyric default-y="-78" number="1" relative-x="6">
          <syllabic>middle</syllabic>
          <text>ště</text>
        </lyric>
      </note>
      <note default-x="128">
        <pitch>
          <step>A</step>
          <octave>4</octave>
        </pitch>
        <duration>4</duration>
        <voice>1</voice>
        <type>eighth</type>
        <stem default-y="6">up</stem>
        <lyric default-y="-78" number="1">
          <syllabic>end</syllabic>
          <text>pil</text>
        </lyric>
      </note>
      <note default-x="167">
        <pitch>
          <step>G</step>
          <octave>4</octave>
        </pitch>
        <duration>8</duration>
        <voice>1</voice>
        <type>quarter</type>
        <stem default-y="1">up</stem>
        <lyric default-y="-78" number="1" relative-x="3">
          <syllabic>single</syllabic>
          <text>jsi</text>
        </lyric>
      </note>
      <harmony default-y="8">
        <root>
          <root-step>E</root-step>
          <root-alter>-1</root-alter>
        </root>
        <kind halign="center" text="7">dominant</kind>
      </harmony>
      <note default-x="221">
        <pitch>
          <step>E</step>
          <alter>-1</alter>
          <octave>4</octave>
        </pitch>
        <duration>8</duration>
        <voice>1</voice>
        <type>quarter</type>
        <stem default-y="-9">up</stem>
        <lyric default-y="-78" number="1">
          <syllabic>single</syllabic>
          <text>ji.</text>
        </lyric>
      </note>
    </measure>
    <!--=======================================================-->
    <measure number="8" width="359">
      <print new-system="yes">
        <system-layout>
          <system-distance>83</system-distance>
        </system-layout>
      </print>
      <harmony default-y="8">
        <root>
          <root-step>C</root-step>
        </root>
        <kind halign="center" text="">minor</kind>
      </harmony>
      <note default-x="84">
        <rest/>
        <duration>4</duration>
        <voice>1</voice>
        <type>eighth</type>
      </note>
      <note default-x="112">
        <pitch>
          <step>C</step>
          <octave>4</octave>
        </pitch>
        <duration>4</duration>
        <voice>1</voice>
        <type>eighth</type>
        <stem default-y="-19">up</stem>
        <lyric default-y="-86" number="1">
          <syllabic>single</syllabic>
          <text>Scel</text>
        </lyric>
      </note>
      <note default-x="148">
        <pitch>
          <step>C</step>
          <octave>4</octave>
        </pitch>
        <duration>4</duration>
        <voice>1</voice>
        <type>eighth</type>
        <stem default-y="-21">up</stem>
        <lyric default-y="-86" number="1">
          <syllabic>begin</syllabic>
          <text>je</text>
        </lyric>
      </note>
      <note default-x="184">
        <pitch>
          <step>D</step>
          <octave>4</octave>
        </pitch>
        <duration>4</duration>
        <voice>1</voice>
        <type>eighth</type>
        <stem default-y="-14">up</stem>
        <lyric default-y="-86" number="1">
          <syllabic>end</syllabic>
          <text>jí</text>
        </lyric>
      </note>
      <harmony default-y="8">
        <root>
          <root-step>E</root-step>
          <root-alter>-1</root-alter>
        </root>
        <kind halign="center" text="">major</kind>
      </harmony>
      <note default-x="219">
        <pitch>
          <step>E</step>
          <alter>-1</alter>
          <octave>4</octave>
        </pitch>
        <duration>4</duration>
        <voice>1</voice>
        <type>eighth</type>
        <stem default-y="-8">up</stem>
        <lyric default-y="-86" number="1" relative-x="5">
          <syllabic>begin</syllabic>
          <text>trh</text>
        </lyric>
      </note>
      <note default-x="254">
        <pitch>
          <step>D</step>
          <octave>4</octave>
        </pitch>
        <duration>4</duration>
        <voice>1</voice>
        <type>eighth</type>
        <stem default-y="-14">up</stem>
        <lyric default-y="-86" number="1" relative-x="4">
          <syllabic>middle</syllabic>
          <text>li</text>
        </lyric>
      </note>
      <harmony default-y="8">
        <root>
          <root-step>F</root-step>
        </root>
        <kind halign="center" text="">major</kind>
      </harmony>
      <note default-x="289">
        <pitch>
          <step>C</step>
          <octave>4</octave>
        </pitch>
        <duration>4</duration>
        <voice>1</voice>
        <type>eighth</type>
        <stem default-y="-19">up</stem>
        <lyric default-y="-86" number="1">
          <syllabic>end</syllabic>
          <text>ny,</text>
        </lyric>
      </note>
      <note default-x="324">
        <rest/>
        <duration>4</duration>
        <voice>1</voice>
        <type>eighth</type>
      </note>
    </measure>
    <!--=======================================================-->
    <measure number="9" width="293">
      <harmony default-y="8">
        <root>
          <root-step>G</root-step>
        </root>
        <kind halign="center" text="">minor</kind>
      </harmony>
      <note default-x="22">
        <rest/>
        <duration>4</duration>
        <voice>1</voice>
        <type>eighth</type>
      </note>
      <note default-x="49">
        <pitch>
          <step>D</step>
          <octave>4</octave>
        </pitch>
        <duration>4</duration>
        <voice>1</voice>
        <type>eighth</type>
        <stem default-y="-14">up</stem>
        <lyric default-y="-86" number="1">
          <syllabic>begin</syllabic>
          <text>ne</text>
        </lyric>
      </note>
      <harmony default-y="8">
        <root>
          <root-step>D</root-step>
        </root>
        <kind halign="center" text="">major</kind>
      </harmony>
      <note default-x="85">
        <pitch>
          <step>D</step>
          <octave>4</octave>
        </pitch>
        <duration>4</duration>
        <voice>1</voice>
        <type>eighth</type>
        <stem default-y="-14">up</stem>
        <lyric default-y="-86" number="1" relative-x="-6">
          <syllabic>end</syllabic>
          <text>boť</text>
        </lyric>
      </note>
      <note default-x="124">
        <pitch>
          <step>C</step>
          <octave>4</octave>
        </pitch>
        <duration>4</duration>
        <voice>1</voice>
        <type>eighth</type>
        <stem default-y="-19">up</stem>
        <lyric default-y="-86" number="1" relative-x="3">
          <syllabic>single</syllabic>
          <text>se</text>
        </lyric>
      </note>
      <harmony default-y="8">
        <root>
          <root-step>E</root-step>
          <root-alter>-1</root-alter>
        </root>
        <kind halign="center" text="">major</kind>
      </harmony>
      <note default-x="164">
        <pitch>
          <step>B</step>
          <alter>-1</alter>
          <octave>3</octave>
        </pitch>
        <duration>8</duration>
        <voice>1</voice>
        <type>quarter</type>
        <stem default-y="-19">up</stem>
        <lyric default-y="-86" number="1" relative-x="13">
          <syllabic>begin</syllabic>
          <text>hrou</text>
        </lyric>
      </note>
      <harmony default-y="8">
        <root>
          <root-step>F</root-step>
        </root>
        <kind halign="center" text="">major</kind>
      </harmony>
      <note default-x="221">
        <pitch>
          <step>A</step>
          <octave>3</octave>
        </pitch>
        <duration>8</duration>
        <voice>1</voice>
        <type>quarter</type>
        <stem default-y="-19">up</stem>
        <lyric default-y="-86" number="1">
          <syllabic>end</syllabic>
          <text>tí!</text>
        </lyric>
      </note>
    </measure>
    <!--=======================================================-->
    <measure number="10" width="359">
      <print new-system="yes">
        <system-layout>
          <system-distance>87</system-distance>
        </system-layout>
      </print>
      <harmony default-y="8">
        <root>
          <root-step>B</root-step>
          <root-alter>-1</root-alter>
        </root>
        <kind halign="center" text="">major</kind>
      </harmony>
      <note default-x="84">
        <rest/>
        <duration>4</duration>
        <voice>1</voice>
        <type>eighth</type>
      </note>
      <note default-x="111">
        <pitch>
          <step>D</step>
          <octave>4</octave>
        </pitch>
        <duration>4</duration>
        <voice>1</voice>
        <type>eighth</type>
        <stem default-y="-13.5">up</stem>
        <lyric default-y="-81" number="1" relative-x="4">
          <syllabic>begin</syllabic>
          <text>Vlast</text>
        </lyric>
      </note>
      <note default-x="146">
        <pitch>
          <step>D</step>
          <octave>4</octave>
        </pitch>
        <duration>4</duration>
        <voice>1</voice>
        <type>eighth</type>
        <stem default-y="-13.5">up</stem>
        <lyric default-y="-81" number="1" relative-x="8">
          <syllabic>middle</syllabic>
          <text>ní</text>
        </lyric>
      </note>
      <note default-x="182">
        <pitch>
          <step>E</step>
          <alter>-1</alter>
          <octave>4</octave>
        </pitch>
        <duration>4</duration>
        <voice>1</voice>
        <type>eighth</type>
        <stem default-y="-9">up</stem>
        <lyric default-y="-81" number="1">
          <syllabic>end</syllabic>
          <text>mu</text>
        </lyric>
      </note>
      <note default-x="219">
        <pitch>
          <step>F</step>
          <octave>4</octave>
        </pitch>
        <duration>4</duration>
        <voice>1</voice>
        <type>eighth</type>
        <stem default-y="-4">up</stem>
        <lyric default-y="-81" number="1">
          <syllabic>begin</syllabic>
          <text>li</text>
        </lyric>
      </note>
      <note default-x="254">
        <pitch>
          <step>E</step>
          <alter>-1</alter>
          <octave>4</octave>
        </pitch>
        <duration>4</duration>
        <voice>1</voice>
        <type>eighth</type>
        <stem default-y="-9">up</stem>
        <lyric default-y="-81" number="1" relative-x="-11">
          <syllabic>end</syllabic>
          <text>du</text>
        </lyric>
      </note>
      <note default-x="290">
        <pitch>
          <step>D</step>
          <octave>4</octave>
        </pitch>
        <duration>4</duration>
        <voice>1</voice>
        <type>eighth</type>
        <stem default-y="-13.5">up</stem>
        <lyric default-y="-81" number="1" relative-x="3">
          <syllabic>single</syllabic>
          <text>dals</text>
        </lyric>
      </note>
      <note default-x="325">
        <rest/>
        <duration>4</duration>
        <voice>1</voice>
        <type>eighth</type>
      </note>
    </measure>
    <!--=======================================================-->
    <measure number="11" width="293">
      <harmony default-y="8">
        <root>
          <root-step>F</root-step>
        </root>
        <kind halign="center" text="">major</kind>
      </harmony>
      <note default-x="21">
        <rest/>
        <duration>4</duration>
        <voice>1</voice>
        <type>eighth</type>
      </note>
      <note default-x="49">
        <pitch>
          <step>C</step>
          <octave>4</octave>
        </pitch>
        <duration>4</duration>
        <voice>1</voice>
        <type>eighth</type>
        <stem default-y="-18.5">up</stem>
        <lyric default-y="-81" number="1" relative-x="-2">
          <syllabic>begin</syllabic>
          <text>o</text>
        </lyric>
      </note>
      <note default-x="87">
        <pitch>
          <step>C</step>
          <octave>4</octave>
        </pitch>
        <duration>4</duration>
        <voice>1</voice>
        <type>eighth</type>
        <stem default-y="-18.5">up</stem>
        <lyric default-y="-81" number="1" relative-x="-4">
          <syllabic>middle</syllabic>
          <text>ku</text>
        </lyric>
      </note>
      <note default-x="125">
        <pitch>
          <step>D</step>
          <octave>4</octave>
        </pitch>
        <duration>4</duration>
        <voice>1</voice>
        <type>eighth</type>
        <stem default-y="-13.5">up</stem>
        <lyric default-y="-81" number="1" relative-x="-2">
          <syllabic>end</syllabic>
          <text>sit</text>
        </lyric>
      </note>
      <note default-x="163">
        <pitch>
          <step>E</step>
          <alter>-1</alter>
          <octave>4</octave>
        </pitch>
        <duration>4</duration>
        <voice>1</voice>
        <type>eighth</type>
        <stem default-y="-9">up</stem>
        <lyric default-y="-81" number="1" relative-x="-2">
          <syllabic>begin</syllabic>
          <text>tvr</text>
        </lyric>
      </note>
      <note default-x="200">
        <pitch>
          <step>F</step>
          <octave>4</octave>
        </pitch>
        <duration>4</duration>
        <voice>1</voice>
        <type>eighth</type>
        <stem default-y="-4">up</stem>
        <lyric default-y="-81" number="1">
          <syllabic>end</syllabic>
          <text>dost,</text>
        </lyric>
      </note>
      <note default-x="241">
        <rest/>
        <duration>8</duration>
        <voice>1</voice>
        <type>quarter</type>
      </note>
    </measure>
    <!--=======================================================-->
    <measure number="12" width="378">
      <print new-system="yes">
        <system-layout>
          <system-distance>85</system-distance>
        </system-layout>
      </print>
      <harmony default-y="8">
        <root>
          <root-step>C</root-step>
        </root>
        <kind halign="center" text="">minor</kind>
      </harmony>
      <note default-x="85">
        <rest/>
        <duration>4</duration>
        <voice>1</voice>
        <type>eighth</type>
      </note>
      <note default-x="112">
        <pitch>
          <step>G</step>
          <octave>4</octave>
        </pitch>
        <duration>4</duration>
        <voice>1</voice>
        <type>eighth</type>
        <stem default-y="1.5">up</stem>
        <lyric default-y="-78" number="1" relative-x="-10">
          <syllabic>single</syllabic>
          <text>dals</text>
        </lyric>
      </note>
      <note default-x="153">
        <pitch>
          <step>G</step>
          <octave>4</octave>
        </pitch>
        <duration>4</duration>
        <voice>1</voice>
        <type>eighth</type>
        <stem default-y="1.5">up</stem>
        <lyric default-y="-78" number="1">
          <syllabic>single</syllabic>
          <text>nám</text>
        </lyric>
      </note>
      <note default-x="194">
        <pitch>
          <step>G</step>
          <octave>4</octave>
        </pitch>
        <duration>4</duration>
        <voice>1</voice>
        <type>eighth</type>
        <stem default-y="1.5">up</stem>
        <lyric default-y="-78" number="1" relative-x="5">
          <syllabic>single</syllabic>
          <text>pít</text>
        </lyric>
      </note>
      <harmony default-y="8">
        <root>
          <root-step>E</root-step>
          <root-alter>-1</root-alter>
        </root>
        <kind halign="center" text="">major</kind>
      </harmony>
      <note default-x="236">
        <pitch>
          <step>G</step>
          <octave>4</octave>
        </pitch>
        <duration>8</duration>
        <voice>1</voice>
        <type>quarter</type>
        <stem default-y="1.5">up</stem>
        <lyric default-y="-78" number="1">
          <syllabic>begin</syllabic>
          <text>ví</text>
        </lyric>
      </note>
      <harmony default-y="8">
        <root>
          <root-step>F</root-step>
        </root>
        <kind halign="center" text="">major</kind>
      </harmony>
      <note default-x="290">
        <pitch>
          <step>G</step>
          <octave>4</octave>
        </pitch>
        <duration>4</duration>
        <voice>1</voice>
        <type>eighth</type>
        <stem default-y="1.5">up</stem>
        <lyric default-y="-78" number="1">
          <syllabic>end</syllabic>
          <text>no,</text>
        </lyric>
      </note>
      <note default-x="333">
        <pitch>
          <step>A</step>
          <octave>4</octave>
        </pitch>
        <duration>4</duration>
        <voice>1</voice>
        <type>eighth</type>
        <stem default-y="6.5">up</stem>
        <lyric default-y="-78" number="1">
          <syllabic>single</syllabic>
          <text>až</text>
        </lyric>
      </note>
    </measure>
    <!--=======================================================-->
    <measure number="13" width="275">
      <harmony default-y="8">
        <root>
          <root-step>G</root-step>
        </root>
        <kind halign="center" text="">minor</kind>
      </harmony>
      <note default-x="20">
        <rest/>
        <duration>4</duration>
        <voice>1</voice>
        <type>eighth</type>
      </note>
      <note default-x="48">
        <pitch>
          <step>B</step>
          <alter>-1</alter>
          <octave>4</octave>
        </pitch>
        <duration>4</duration>
        <voice>1</voice>
        <type>eighth</type>
        <stem default-y="-51">down</stem>
        <lyric default-y="-78" number="1" relative-x="-12">
          <syllabic>begin</syllabic>
          <text>zá</text>
        </lyric>
      </note>
      <note default-x="80">
        <pitch>
          <step>B</step>
          <alter>-1</alter>
          <octave>4</octave>
        </pitch>
        <duration>4</duration>
        <voice>1</voice>
        <type>eighth</type>
        <stem default-y="-51">down</stem>
        <lyric default-y="-78" number="1" relative-x="-12">
          <syllabic>end</syllabic>
          <text>vrať</text>
        </lyric>
      </note>
      <note default-x="112">
        <pitch>
          <step>B</step>
          <alter>-1</alter>
          <octave>4</octave>
        </pitch>
        <duration>4</duration>
        <voice>1</voice>
        <type>eighth</type>
        <stem default-y="-51">down</stem>
        <lyric default-y="-78" number="1">
          <syllabic>single</syllabic>
          <text>nás</text>
        </lyric>
      </note>
      <harmony default-y="8">
        <root>
          <root-step>D</root-step>
        </root>
        <kind halign="center" text="">minor</kind>
      </harmony>
      <note default-x="145">
        <pitch>
          <step>A</step>
          <octave>4</octave>
        </pitch>
        <duration>4</duration>
        <voice>1</voice>
        <type>eighth</type>
        <stem default-y="5">up</stem>
        <beam number="1">begin</beam>
        <notations>
          <slur bezier-x="1" bezier-y="-13" default-x="5" default-y="-33" number="1" placement="below" type="start"/>
        </notations>
        <lyric default-y="-78" number="1">
          <syllabic>begin</syllabic>
          <text>jí</text>
        </lyric>
      </note>
      <note default-x="173">
        <pitch>
          <step>D</step>
          <octave>4</octave>
        </pitch>
        <duration>4</duration>
        <voice>1</voice>
        <type>eighth</type>
        <stem default-y="0">up</stem>
        <beam number="1">end</beam>
        <notations>
          <slur bezier-x="-13" bezier-y="-2" default-x="0" default-y="-52" number="1" type="stop"/>
        </notations>
      </note>
      <note default-x="207">
        <pitch>
          <step>D</step>
          <octave>4</octave>
        </pitch>
        <duration>8</duration>
        <voice>1</voice>
        <type>quarter</type>
        <stem default-y="-14">up</stem>
        <lyric default-y="-78" number="1" relative-x="-5">
          <syllabic>end</syllabic>
          <text>má.</text>
        </lyric>
      </note>
    </measure>
    <!--=======================================================-->
    <measure number="14" width="359">
      <print new-system="yes">
        <system-layout>
          <system-distance>83</system-distance>
        </system-layout>
      </print>
      <harmony default-y="8">
        <root>
          <root-step>B</root-step>
          <root-alter>-1</root-alter>
        </root>
        <kind halign="center" text="">major</kind>
      </harmony>
      <note default-x="84">
        <rest/>
        <duration>4</duration>
        <voice>1</voice>
        <type>eighth</type>
      </note>
      <note default-x="111">
        <pitch>
          <step>D</step>
          <octave>4</octave>
        </pitch>
        <duration>4</duration>
        <voice>1</voice>
        <type>eighth</type>
        <stem default-y="-13.5">up</stem>
        <lyric default-y="-78" number="1">
          <syllabic>begin</syllabic>
          <text>Do</text>
        </lyric>
      </note>
      <note default-x="147">
        <pitch>
          <step>D</step>
          <octave>4</octave>
        </pitch>
        <duration>4</duration>
        <voice>1</voice>
        <type>eighth</type>
        <stem default-y="-13.5">up</stem>
        <lyric default-y="-78" number="1" relative-x="-2">
          <syllabic>middle</syllabic>
          <text>pus</text>
        </lyric>
      </note>
      <note default-x="183">
        <pitch>
          <step>E</step>
          <alter>-1</alter>
          <octave>4</octave>
        </pitch>
        <duration>4</duration>
        <voice>1</voice>
        <type>eighth</type>
        <stem default-y="-8.5">up</stem>
        <lyric default-y="-78" number="1">
          <syllabic>end</syllabic>
          <text>tils,</text>
        </lyric>
      </note>
      <note default-x="220">
        <pitch>
          <step>F</step>
          <octave>4</octave>
        </pitch>
        <duration>4</duration>
        <voice>1</voice>
        <type>eighth</type>
        <stem default-y="-3.5">up</stem>
        <lyric default-y="-78" number="1">
          <syllabic>begin</syllabic>
          <text>a</text>
        </lyric>
      </note>
      <note default-x="255">
        <pitch>
          <step>E</step>
          <alter>-1</alter>
          <octave>4</octave>
        </pitch>
        <duration>4</duration>
        <voice>1</voice>
        <type>eighth</type>
        <stem default-y="-8.5">up</stem>
        <lyric default-y="-78" number="1" relative-x="-3">
          <syllabic>end</syllabic>
          <text>by</text>
        </lyric>
      </note>
      <note default-x="292">
        <pitch>
          <step>D</step>
          <octave>4</octave>
        </pitch>
        <duration>4</duration>
        <voice>1</voice>
        <type>eighth</type>
        <stem default-y="-13.5">up</stem>
        <lyric default-y="-78" number="1">
          <syllabic>single</syllabic>
          <text>ti,</text>
        </lyric>
      </note>
      <note default-x="328">
        <rest/>
        <duration>4</duration>
        <voice>1</voice>
        <type>eighth</type>
      </note>
    </measure>
    <!--=======================================================-->
    <measure number="15" width="294">
      <harmony default-y="8">
        <root>
          <root-step>F</root-step>
        </root>
        <kind halign="center" text="">major</kind>
      </harmony>
      <note default-x="19">
        <rest/>
        <duration>4</duration>
        <voice>1</voice>
        <type>eighth</type>
      </note>
      <note default-x="45">
        <pitch>
          <step>C</step>
          <octave>4</octave>
        </pitch>
        <duration>4</duration>
        <voice>1</voice>
        <type>eighth</type>
        <stem default-y="-18">up</stem>
        <lyric default-y="-78" number="1">
          <syllabic>single</syllabic>
          <text>kdo</text>
        </lyric>
      </note>
      <note default-x="83">
        <pitch>
          <step>C</step>
          <octave>4</octave>
        </pitch>
        <duration>4</duration>
        <voice>1</voice>
        <type>eighth</type>
        <stem default-y="-18">up</stem>
        <lyric default-y="-78" number="1" relative-x="5">
          <syllabic>single</syllabic>
          <text>se</text>
        </lyric>
      </note>
      <note default-x="123">
        <pitch>
          <step>D</step>
          <octave>4</octave>
        </pitch>
        <duration>4</duration>
        <voice>1</voice>
        <type>eighth</type>
        <stem default-y="-13.5">up</stem>
        <lyric default-y="-78" number="1">
          <syllabic>single</syllabic>
          <text>tě</text>
        </lyric>
      </note>
      <note default-x="162">
        <pitch>
          <step>E</step>
          <alter>-1</alter>
          <octave>4</octave>
        </pitch>
        <duration>4</duration>
        <voice>1</voice>
        <type>eighth</type>
        <stem default-y="-8.5">up</stem>
        <lyric default-y="-78" number="1" relative-x="3">
          <syllabic>begin</syllabic>
          <text>bo</text>
        </lyric>
      </note>
      <note default-x="200">
        <pitch>
          <step>F</step>
          <octave>4</octave>
        </pitch>
        <duration>12</duration>
        <voice>1</voice>
        <type>quarter</type>
        <dot/>
        <stem default-y="-3.5">up</stem>
        <lyric default-y="-78" number="1">
          <syllabic>end</syllabic>
          <text>jí,</text>
        </lyric>
      </note>
    </measure>
    <!--=======================================================-->
    <measure number="16" width="359">
      <print new-system="yes">
        <system-layout>
          <system-distance>83</system-distance>
        </system-layout>
      </print>
      <harmony default-y="8">
        <root>
          <root-step>C</root-step>
        </root>
        <kind halign="center" text="">minor</kind>
      </harmony>
      <note default-x="84">
        <rest/>
        <duration>4</duration>
        <voice>1</voice>
        <type>eighth</type>
      </note>
      <note default-x="113">
        <pitch>
          <step>G</step>
          <octave>4</octave>
        </pitch>
        <duration>4</duration>
        <voice>1</voice>
        <type>eighth</type>
        <stem default-y="1">up</stem>
        <lyric default-y="-78" number="1">
          <syllabic>begin</syllabic>
          <text>ko</text>
        </lyric>
      </note>
      <note default-x="152">
        <pitch>
          <step>G</step>
          <octave>4</octave>
        </pitch>
        <duration>4</duration>
        <voice>1</voice>
        <type>eighth</type>
        <stem default-y="1">up</stem>
        <lyric default-y="-78" number="1" relative-x="-7">
          <syllabic>middle</syllabic>
          <text>rou</text>
        </lyric>
      </note>
      <note default-x="190">
        <pitch>
          <step>G</step>
          <octave>4</octave>
        </pitch>
        <duration>4</duration>
        <voice>1</voice>
        <type>eighth</type>
        <stem default-y="1">up</stem>
        <lyric default-y="-78" number="1" relative-x="-6">
          <syllabic>end</syllabic>
          <text>hev</text>
        </lyric>
      </note>
      <harmony default-y="8">
        <root>
          <root-step>E</root-step>
          <root-alter>-1</root-alter>
        </root>
        <kind halign="center" text="">major</kind>
      </harmony>
      <note default-x="229">
        <pitch>
          <step>G</step>
          <octave>4</octave>
        </pitch>
        <duration>8</duration>
        <voice>1</voice>
        <type>quarter</type>
        <stem default-y="1">up</stem>
        <lyric default-y="-78" number="1">
          <syllabic>begin</syllabic>
          <text>k ú</text>
        </lyric>
      </note>
      <harmony default-y="8">
        <root>
          <root-step>F</root-step>
        </root>
        <kind halign="center" text="">major</kind>
      </harmony>
      <note default-x="280">
        <pitch>
          <step>G</step>
          <octave>4</octave>
        </pitch>
        <duration>4</duration>
        <voice>1</voice>
        <type>eighth</type>
        <stem default-y="1">up</stem>
        <lyric default-y="-78" number="1" relative-x="-3">
          <syllabic>middle</syllabic>
          <text>stu</text>
        </lyric>
      </note>
      <note default-x="319">
        <pitch>
          <step>A</step>
          <octave>4</octave>
        </pitch>
        <duration>4</duration>
        <voice>1</voice>
        <type>eighth</type>
        <stem default-y="6">up</stem>
        <lyric default-y="-78" number="1">
          <syllabic>end</syllabic>
          <text>pu</text>
        </lyric>
      </note>
    </measure>
    <!--=======================================================-->
    <measure number="17" width="293">
      <harmony default-y="8">
        <root>
          <root-step>G</root-step>
        </root>
        <kind halign="center" text="">minor</kind>
      </harmony>
      <note default-x="19">
        <rest/>
        <duration>4</duration>
        <voice>1</voice>
        <type>eighth</type>
      </note>
      <note default-x="50">
        <pitch>
          <step>B</step>
          <alter>-1</alter>
          <octave>4</octave>
        </pitch>
        <duration>4</duration>
        <voice>1</voice>
        <type>eighth</type>
        <stem default-y="-51">down</stem>
        <lyric default-y="-78" number="1" relative-x="-6">
          <syllabic>single</syllabic>
          <text>před</text>
        </lyric>
      </note>
      <note default-x="88">
        <pitch>
          <step>B</step>
          <alter>-1</alter>
          <octave>4</octave>
        </pitch>
        <duration>4</duration>
        <voice>1</voice>
        <type>eighth</type>
        <stem default-y="-51">down</stem>
        <lyric default-y="-78" number="1">
          <syllabic>begin</syllabic>
          <text>lu</text>
        </lyric>
      </note>
      <note default-x="124">
        <pitch>
          <step>B</step>
          <alter>-1</alter>
          <octave>4</octave>
        </pitch>
        <duration>4</duration>
        <voice>1</voice>
        <type>eighth</type>
        <stem default-y="-51">down</stem>
        <lyric default-y="-78" number="1" relative-x="-2">
          <syllabic>end</syllabic>
          <text>kem</text>
        </lyric>
      </note>
      <harmony default-y="8">
        <root>
          <root-step>D</root-step>
        </root>
        <kind halign="center" text="7">dominant</kind>
      </harmony>
      <note default-x="164">
        <pitch>
          <step>A</step>
          <octave>4</octave>
        </pitch>
        <duration>8</duration>
        <voice>1</voice>
        <type>quarter</type>
        <stem default-y="6">up</stem>
        <lyric default-y="-78" number="1" relative-x="15">
          <syllabic>begin</syllabic>
          <text>zved</text>
        </lyric>
      </note>
      <note default-x="221">
        <pitch>
          <step>D</step>
          <octave>4</octave>
        </pitch>
        <duration>8</duration>
        <voice>1</voice>
        <type>quarter</type>
        <stem default-y="-13.5">up</stem>
        <lyric default-y="-78" number="1">
          <syllabic>end</syllabic>
          <text>li.</text>
        </lyric>
      </note>
    </measure>
    <!--=======================================================-->
    <measure number="18" width="359">
      <print new-system="yes">
        <system-layout>
          <system-distance>81</system-distance>
        </system-layout>
      </print>
      <harmony default-y="9">
        <root>
          <root-step>G</root-step>
        </root>
        <kind halign="center" text="">minor</kind>
      </harmony>
      <note default-x="84">
        <rest>
          <display-step>B</display-step>
          <display-octave>4</display-octave>
        </rest>
        <duration>4</duration>
        <voice>1</voice>
        <type>eighth</type>
      </note>
      <note default-x="115">
        <pitch>
          <step>D</step>
          <octave>5</octave>
        </pitch>
        <duration>4</duration>
        <voice>1</voice>
        <type size="cue">eighth</type>
        <stem default-y="-50">down</stem>
        <lyric default-y="-82" number="1">
          <syllabic>begin</syllabic>
          <text>A</text>
        </lyric>
      </note>
      <note default-x="151">
        <pitch>
          <step>D</step>
          <octave>5</octave>
        </pitch>
        <duration>4</duration>
        <voice>1</voice>
        <type size="cue">eighth</type>
        <stem default-y="-50">down</stem>
        <lyric default-y="-82" number="1" relative-x="-5">
          <syllabic>end</syllabic>
          <text>by</text>
        </lyric>
      </note>
      <note default-x="190">
        <pitch>
          <step>E</step>
          <alter>-1</alter>
          <octave>5</octave>
        </pitch>
        <duration>4</duration>
        <voice>1</voice>
        <type size="cue">eighth</type>
        <stem default-y="-45.5">down</stem>
        <lyric default-y="-82" number="1">
          <syllabic>begin</syllabic>
          <text>tvo</text>
        </lyric>
      </note>
      <note default-x="227">
        <pitch>
          <step>F</step>
          <octave>5</octave>
        </pitch>
        <duration>4</duration>
        <voice>1</voice>
        <type size="cue">eighth</type>
        <stem default-y="-40.5">down</stem>
        <lyric default-y="-82" number="1">
          <syllabic>end</syllabic>
          <text>ji</text>
        </lyric>
      </note>
      <note default-x="264">
        <pitch>
          <step>E</step>
          <alter>-1</alter>
          <octave>5</octave>
        </pitch>
        <duration>4</duration>
        <voice>1</voice>
        <type size="cue">eighth</type>
        <stem default-y="-45.5">down</stem>
        <lyric default-y="-82" number="1" relative-x="3">
          <syllabic>begin</syllabic>
          <text>mi</text>
        </lyric>
      </note>
      <note default-x="301">
        <pitch>
          <step>D</step>
          <octave>5</octave>
        </pitch>
        <duration>8</duration>
        <voice>1</voice>
        <type size="cue">quarter</type>
        <stem default-y="-41">down</stem>
        <lyric default-y="-82" number="1">
          <syllabic>end</syllabic>
          <text>lí</text>
        </lyric>
      </note>
      <backup>
        <duration>32</duration>
      </backup>
      <note default-x="84">
        <rest>
          <display-step>B</display-step>
          <display-octave>4</display-octave>
        </rest>
        <duration>4</duration>
        <voice>2</voice>
        <type>eighth</type>
      </note>
      <note default-x="115">
        <pitch>
          <step>B</step>
          <alter>-1</alter>
          <octave>4</octave>
        </pitch>
        <duration>4</duration>
        <voice>2</voice>
        <type>eighth</type>
        <stem default-y="-50">down</stem>
      </note>
      <note default-x="151">
        <pitch>
          <step>B</step>
          <alter>-1</alter>
          <octave>4</octave>
        </pitch>
        <duration>4</duration>
        <voice>2</voice>
        <type>eighth</type>
        <stem default-y="-50">down</stem>
      </note>
      <note default-x="190">
        <pitch>
          <step>C</step>
          <octave>5</octave>
        </pitch>
        <duration>4</duration>
        <voice>2</voice>
        <type>eighth</type>
        <stem default-y="-46">down</stem>
      </note>
      <note default-x="227">
        <pitch>
          <step>D</step>
          <octave>5</octave>
        </pitch>
        <duration>4</duration>
        <voice>2</voice>
        <type>eighth</type>
        <stem default-y="-41">down</stem>
      </note>
      <note default-x="264">
        <pitch>
          <step>C</step>
          <octave>5</octave>
        </pitch>
        <duration>4</duration>
        <voice>2</voice>
        <type>eighth</type>
        <stem default-y="-46">down</stem>
      </note>
      <note default-x="301">
        <pitch>
          <step>B</step>
          <alter>-1</alter>
          <octave>4</octave>
        </pitch>
        <duration>8</duration>
        <voice>2</voice>
        <type>quarter</type>
        <stem default-y="-51">down</stem>
      </note>
    </measure>
    <!--=======================================================-->
    <measure number="19" width="294">
      <harmony default-y="9" relative-x="12">
        <root>
          <root-step>F</root-step>
        </root>
        <kind halign="center" text="">major</kind>
      </harmony>
      <note default-x="26">
        <pitch>
          <step>C</step>
          <octave>5</octave>
        </pitch>
        <duration>4</duration>
        <voice>1</voice>
        <type size="cue">eighth</type>
        <stem default-y="-55">down</stem>
        <lyric default-y="-82" number="1" relative-x="3">
          <syllabic>begin</syllabic>
          <text>by</text>
        </lyric>
      </note>
      <note default-x="60">
        <pitch>
          <step>C</step>
          <octave>5</octave>
        </pitch>
        <duration>4</duration>
        <voice>1</voice>
        <type size="cue">eighth</type>
        <stem default-y="-55">down</stem>
        <lyric default-y="-82" number="1">
          <syllabic>end</syllabic>
          <text>li</text>
        </lyric>
      </note>
      <note default-x="94">
        <pitch>
          <step>C</step>
          <octave>5</octave>
        </pitch>
        <duration>4</duration>
        <voice>1</voice>
        <type size="cue">eighth</type>
        <stem default-y="-55">down</stem>
        <lyric default-y="-82" number="1">
          <syllabic>begin</syllabic>
          <text>za</text>
        </lyric>
      </note>
      <note default-x="128">
        <pitch>
          <step>D</step>
          <octave>5</octave>
        </pitch>
        <duration>4</duration>
        <voice>1</voice>
        <type size="cue">eighth</type>
        <stem default-y="-50">down</stem>
        <lyric default-y="-82" number="1" relative-x="5">
          <syllabic>middle</syllabic>
          <text>cho</text>
        </lyric>
      </note>
      <note default-x="162">
        <pitch>
          <step>E</step>
          <alter>-1</alter>
          <octave>5</octave>
        </pitch>
        <duration>4</duration>
        <voice>1</voice>
        <type size="cue">eighth</type>
        <stem default-y="18">up</stem>
        <beam number="1">begin</beam>
        <notations>
          <slur bezier-x="1" bezier-y="-14" default-x="2" default-y="-23" number="1" placement="below" type="start"/>
        </notations>
        <lyric default-y="-82" number="1">
          <syllabic>middle</syllabic>
          <text>vá</text>
        </lyric>
      </note>
      <note default-x="192">
        <pitch>
          <step>C</step>
          <octave>5</octave>
        </pitch>
        <duration>4</duration>
        <voice>1</voice>
        <type size="cue">eighth</type>
        <stem default-y="12">up</stem>
        <beam number="1">end</beam>
      </note>
      <note default-x="221">
        <pitch>
          <step>C</step>
          <octave>5</octave>
        </pitch>
        <duration>4</duration>
        <voice>1</voice>
        <type size="cue">eighth</type>
        <stem default-y="16.5">up</stem>
        <lyric default-y="-82" number="1" relative-x="-4">
          <syllabic>end</syllabic>
          <text>ni,</text>
        </lyric>
      </note>
      <note default-x="253">
        <rest>
          <display-step>B</display-step>
          <display-octave>4</display-octave>
        </rest>
        <duration>4</duration>
        <voice>1</voice>
        <type>eighth</type>
      </note>
      <backup>
        <duration>32</duration>
      </backup>
      <note default-x="26">
        <pitch>
          <step>A</step>
          <octave>4</octave>
        </pitch>
        <duration>4</duration>
        <voice>2</voice>
        <type>eighth</type>
        <stem default-y="-55">down</stem>
      </note>
      <note default-x="60">
        <pitch>
          <step>A</step>
          <octave>4</octave>
        </pitch>
        <duration>4</duration>
        <voice>2</voice>
        <type>eighth</type>
        <stem default-y="-55">down</stem>
      </note>
      <note default-x="94">
        <pitch>
          <step>A</step>
          <octave>4</octave>
        </pitch>
        <duration>4</duration>
        <voice>2</voice>
        <type>eighth</type>
        <stem default-y="-55">down</stem>
      </note>
      <note default-x="128">
        <pitch>
          <step>B</step>
          <alter>-1</alter>
          <octave>4</octave>
        </pitch>
        <duration>4</duration>
        <voice>2</voice>
        <type>eighth</type>
        <stem default-y="-50">down</stem>
      </note>
      <note default-x="160">
        <pitch>
          <step>C</step>
          <octave>5</octave>
        </pitch>
        <duration>4</duration>
        <voice>2</voice>
        <type>eighth</type>
        <stem default-y="18">up</stem>
        <beam number="1">begin</beam>
      </note>
      <note default-x="189">
        <pitch>
          <step>F</step>
          <octave>4</octave>
        </pitch>
        <duration>4</duration>
        <voice>2</voice>
        <type>eighth</type>
        <stem default-y="12">up</stem>
        <beam number="1">end</beam>
        <notations>
          <slur bezier-x="-13" bezier-y="-2" default-x="3" default-y="-44" number="1" type="stop"/>
        </notations>
      </note>
      <note default-x="219">
        <pitch>
          <step>F</step>
          <octave>4</octave>
        </pitch>
        <duration>4</duration>
        <voice>2</voice>
        <type>eighth</type>
        <stem default-y="16.5">up</stem>
      </note>
      <note default-x="253">
        <rest>
          <display-step>B</display-step>
          <display-octave>4</display-octave>
        </rest>
        <duration>4</duration>
        <voice>2</voice>
        <type>eighth</type>
      </note>
    </measure>
    <!--=======================================================-->
    <measure number="20" width="383">
      <print new-system="yes">
        <system-layout>
          <system-distance>95</system-distance>
        </system-layout>
      </print>
      <harmony default-y="15">
        <root>
          <root-step>C</root-step>
        </root>
        <kind halign="center" text="">minor</kind>
      </harmony>
      <note default-x="85">
        <rest>
          <display-step>B</display-step>
          <display-octave>4</display-octave>
        </rest>
        <duration>4</duration>
        <voice>1</voice>
        <type>eighth</type>
      </note>
      <note default-x="120">
        <pitch>
          <step>C</step>
          <octave>5</octave>
        </pitch>
        <duration>4</duration>
        <voice>1</voice>
        <type size="cue">eighth</type>
        <stem default-y="16">up</stem>
        <lyric default-y="-78" number="1" relative-x="-11">
          <syllabic>begin</syllabic>
          <text>po</text>
        </lyric>
      </note>
      <note default-x="163">
        <pitch>
          <step>C</step>
          <octave>5</octave>
        </pitch>
        <duration>4</duration>
        <voice>1</voice>
        <type size="cue">eighth</type>
        <stem default-y="16">up</stem>
        <lyric default-y="-78" number="1" relative-x="-16">
          <syllabic>end</syllabic>
          <text>moz</text>
        </lyric>
      </note>
      <note default-x="205">
        <pitch>
          <step>C</step>
          <octave>5</octave>
        </pitch>
        <duration>4</duration>
        <voice>1</voice>
        <type size="cue">eighth</type>
        <stem default-y="16">up</stem>
        <lyric default-y="-78" number="1">
          <syllabic>single</syllabic>
          <text>svou</text>
        </lyric>
      </note>
      <harmony default-y="15">
        <root>
          <root-step>E</root-step>
          <root-alter>-1</root-alter>
        </root>
        <kind halign="center" text="">major</kind>
      </harmony>
      <note default-x="247">
        <pitch>
          <step>B</step>
          <alter>-1</alter>
          <octave>4</octave>
        </pitch>
        <duration>4</duration>
        <voice>1</voice>
        <type size="cue">eighth</type>
        <stem default-y="11.5">up</stem>
        <lyric default-y="-78" number="1" relative-x="8">
          <syllabic>begin</syllabic>
          <text>pra</text>
        </lyric>
      </note>
      <note default-x="287">
        <pitch>
          <step>B</step>
          <alter>-1</alter>
          <octave>4</octave>
        </pitch>
        <duration>4</duration>
        <voice>1</voice>
        <type size="cue">eighth</type>
        <stem default-y="11.5">up</stem>
        <lyric default-y="-78" number="1" relative-x="-4">
          <syllabic>middle</syllabic>
          <text>vi</text>
        </lyric>
      </note>
      <harmony default-y="15" relative-x="11">
        <root>
          <root-step>F</root-step>
        </root>
        <kind halign="center" text="">major</kind>
      </harmony>
      <note default-x="330">
        <pitch>
          <step>C</step>
          <octave>5</octave>
        </pitch>
        <duration>8</duration>
        <voice>1</voice>
        <type size="cue">quarter</type>
        <stem default-y="-46">down</stem>
        <lyric default-y="-78" number="1">
          <syllabic>end</syllabic>
          <text>cí,</text>
        </lyric>
      </note>
      <backup>
        <duration>32</duration>
      </backup>
      <note default-x="85">
        <rest>
          <display-step>B</display-step>
          <display-octave>4</display-octave>
        </rest>
        <duration>4</duration>
        <voice>2</voice>
        <type>eighth</type>
      </note>
      <note default-x="118">
        <pitch>
          <step>G</step>
          <octave>4</octave>
        </pitch>
        <duration>4</duration>
        <voice>2</voice>
        <type>eighth</type>
        <stem default-y="16">up</stem>
      </note>
      <note default-x="161">
        <pitch>
          <step>G</step>
          <octave>4</octave>
        </pitch>
        <duration>4</duration>
        <voice>2</voice>
        <type>eighth</type>
        <stem default-y="16">up</stem>
      </note>
      <note default-x="203">
        <pitch>
          <step>G</step>
          <octave>4</octave>
        </pitch>
        <duration>4</duration>
        <voice>2</voice>
        <type>eighth</type>
        <stem default-y="16">up</stem>
      </note>
      <note default-x="244">
        <pitch>
          <step>G</step>
          <octave>4</octave>
        </pitch>
        <duration>4</duration>
        <voice>2</voice>
        <type>eighth</type>
        <stem default-y="11.5">up</stem>
      </note>
      <note default-x="285">
        <pitch>
          <step>G</step>
          <octave>4</octave>
        </pitch>
        <duration>4</duration>
        <voice>2</voice>
        <type>eighth</type>
        <stem default-y="11.5">up</stem>
      </note>
      <note default-x="330">
        <pitch>
          <step>A</step>
          <octave>4</octave>
        </pitch>
        <duration>8</duration>
        <voice>2</voice>
        <type>quarter</type>
        <stem default-y="-51">down</stem>
      </note>
    </measure>
    <!--=======================================================-->
    <measure number="21" width="159">
      <attributes>
        <time>
          <beats>2</beats>
          <beat-type>4</beat-type>
        </time>
      </attributes>
      <harmony default-y="15">
        <root>
          <root-step>E</root-step>
          <root-alter>-1</root-alter>
        </root>
        <kind halign="center" text="">major</kind>
      </harmony>
      <note default-x="43">
        <rest>
          <display-step>B</display-step>
          <display-octave>4</display-octave>
        </rest>
        <duration>4</duration>
        <voice>1</voice>
        <type>eighth</type>
      </note>
      <note default-x="70">
        <pitch>
          <step>B</step>
          <alter>-1</alter>
          <octave>4</octave>
        </pitch>
        <duration>4</duration>
        <voice>1</voice>
        <type size="cue">eighth</type>
        <stem default-y="11.5">up</stem>
        <lyric default-y="-78" number="1" relative-x="-5">
          <syllabic>begin</syllabic>
          <text>od</text>
        </lyric>
      </note>
      <harmony default-y="15">
        <root>
          <root-step>F</root-step>
        </root>
        <kind halign="center" text="">major</kind>
      </harmony>
      <note default-x="97">
        <pitch>
          <step>B</step>
          <alter>-1</alter>
          <octave>4</octave>
        </pitch>
        <duration>4</duration>
        <voice>1</voice>
        <type size="cue">eighth</type>
        <stem default-y="11.5">up</stem>
        <lyric default-y="-78" number="1" relative-x="-5">
          <syllabic>middle</syllabic>
          <text>po</text>
        </lyric>
      </note>
      <note default-x="126">
        <pitch>
          <step>A</step>
          <octave>4</octave>
        </pitch>
        <duration>4</duration>
        <voice>1</voice>
        <type size="cue">eighth</type>
        <stem default-y="6.5">up</stem>
        <lyric default-y="-78" number="1" relative-x="-2">
          <syllabic>end</syllabic>
          <text>věz</text>
        </lyric>
      </note>
      <backup>
        <duration>16</duration>
      </backup>
      <note default-x="43">
        <rest>
          <display-step>B</display-step>
          <display-octave>4</display-octave>
        </rest>
        <duration>4</duration>
        <voice>2</voice>
        <type>eighth</type>
      </note>
      <note default-x="68">
        <pitch>
          <step>G</step>
          <octave>4</octave>
        </pitch>
        <duration>4</duration>
        <voice>2</voice>
        <type>eighth</type>
        <stem default-y="11.5">up</stem>
      </note>
      <note default-x="96">
        <pitch>
          <step>G</step>
          <octave>4</octave>
        </pitch>
        <duration>4</duration>
        <voice>2</voice>
        <type>eighth</type>
        <stem default-y="11.5">up</stem>
      </note>
      <note default-x="124">
        <pitch>
          <step>F</step>
          <octave>4</octave>
        </pitch>
        <duration>4</duration>
        <voice>2</voice>
        <type>eighth</type>
        <stem default-y="6.5">up</stem>
      </note>
    </measure>
    <!--=======================================================-->
    <measure number="22" width="111">
      <attributes>
        <time>
          <beats>4</beats>
          <beat-type>4</beat-type>
        </time>
      </attributes>
      <harmony default-y="15" relative-x="-11">
        <root>
          <root-step>G</root-step>
        </root>
        <kind halign="center" text="">major</kind>
        <offset>8</offset>
      </harmony>
      <note default-x="44">
        <pitch>
          <step>B</step>
          <octave>4</octave>
        </pitch>
        <duration>32</duration>
        <voice>1</voice>
        <type size="cue">whole</type>
        <accidental>natural</accidental>
        <lyric default-y="-78" number="1">
          <syllabic>single</syllabic>
          <text>nám!</text>
        </lyric>
      </note>
      <backup>
        <duration>32</duration>
      </backup>
      <note default-x="43">
        <pitch>
          <step>G</step>
          <octave>4</octave>
        </pitch>
        <duration>32</duration>
        <voice>2</voice>
        <type>whole</type>
      </note>
      <barline location="right">
        <bar-style>light-heavy</bar-style>
      </barline>
    </measure>
  </part>
  <!--=========================================================-->
</score-partwise>
